<?xml version="1.0" encoding="UTF-8" standalone="no"?>
<svg width="202px" height="51px" viewBox="0 0 202 51" version="1.1" xmlns="http://www.w3.org/2000/svg" xmlns:xlink="http://www.w3.org/1999/xlink" xmlns:sketch="http://www.bohemiancoding.com/sketch/ns">
    <!-- Generator: Sketch 3.1.1 (8761) - http://www.bohemiancoding.com/sketch -->
    <title>horizontal_default</title>
    <desc>Created with Sketch.</desc>
    <defs>
        <path id="path-1" d="M12.8015267,22.3902778 L9.4759542,22.3902778 L9.4759542,14.3904444 C9.4759542,12.8924444 9.24083969,11.8035556 8.76984733,11.1245556 C8.29885496,10.4455556 7.50419847,10.1056667 6.38587786,10.1056667 C5.0519084,10.1056667 4.02175573,10.5952778 3.29580153,11.5741111 L3.29580153,22.3902778 L-0.029389313,22.3902778 L-0.029389313,-0.0812777778 L3.29580153,-0.0812777778 L3.29580153,8.54777778 C4.31603053,7.66888889 5.45419847,7.22944444 6.70992366,7.22944444 C10.7709924,7.22944444 12.8015267,9.61644444 12.8015267,14.3904444 L12.8015267,22.3902778 L12.8015267,22.3902778 Z"></path>
        <path d="M-0.084351145,7.57088889 C-0.084351145,6.49211111 0.0874045802,5.47827778 0.430916031,4.52977778 C0.774045802,3.58088889 1.26450382,2.76188889 1.90229008,2.07277778 C2.53969466,1.38366667 3.3148855,0.839222222 4.22709924,0.439833333 C5.13931298,0.0404444444 6.15458015,-0.159444444 7.27290076,-0.159444444 C8.39122137,-0.159444444 9.4019084,0.0404444444 10.3041985,0.439833333 C11.2068702,0.839222222 11.9767176,1.38872222 12.6145038,2.08755556 C13.2519084,2.78677778 13.7473282,3.60577778 14.1003817,4.54455556 C14.4538168,5.48333333 14.6301527,6.49211111 14.6301527,7.57088889 C14.6301527,8.64966667 14.4587786,9.65805556 14.1152672,10.5972222 C13.7721374,11.536 13.2812977,12.355 12.6438931,13.0538333 C12.0061069,13.7530556 11.2312977,14.3025556 10.319084,14.7019444 C9.40648855,15.1013333 8.39122137,15.3012222 7.27290076,15.3012222 C6.1351145,15.3012222 5.1148855,15.1013333 4.21221374,14.7019444 C3.30992366,14.3025556 2.53969466,13.7581111 1.90229008,13.069 C1.26450382,12.3798889 0.774045802,11.5659444 0.430916031,10.6271667 C0.0874045802,9.688 -0.084351145,8.6695 -0.084351145,7.57088889 L-0.084351145,7.57088889 Z M3.32938931,7.57088889 C3.32938931,9.06888889 3.6778626,10.2573333 4.37442748,11.1362222 C5.07061069,12.0151111 6.0370229,12.4545556 7.27290076,12.4545556 C8.50916031,12.4545556 9.47519084,12.0151111 10.1717557,11.1362222 C10.8683206,10.2573333 11.2164122,9.06888889 11.2164122,7.57088889 C11.2164122,6.07288889 10.8683206,4.88911111 10.1717557,4.02033333 C9.47519084,3.15155556 8.50916031,2.71677778 7.27290076,2.71677778 C6.0370229,2.71677778 5.07061069,3.15155556 4.37442748,4.02033333 C3.6778626,4.88911111 3.32938931,6.07288889 3.32938931,7.57088889 L3.32938931,7.57088889 Z" id="path-3"></path>
        <path id="path-5" d="M12.490458,15.0013889 L9.43015267,15.0013889 L9.28282443,13.8930556 C8.3019084,14.8318333 7.13435115,15.3012222 5.78091603,15.3012222 C1.81755725,15.3012222 -0.164122137,12.9741111 -0.164122137,8.31988889 L-0.164122137,0.110055556 L3.16145038,0.110055556 L3.16145038,8.08033333 C3.16145038,9.57833333 3.40687023,10.6718889 3.89732824,11.361 C4.38778626,12.0501111 5.16259542,12.3946667 6.2221374,12.3946667 C7.51717557,12.3946667 8.4980916,11.9353889 9.16526718,11.0164444 L9.16526718,0.110055556 L12.490458,0.110055556 L12.490458,15.0013889 L12.490458,15.0013889 Z"></path>
        <path d="M7.06832061,22.4921667 C5.93015267,22.4921667 4.92977099,22.3723889 4.06641221,22.1324444 C3.20305344,21.8928889 2.4870229,21.5681667 1.91793893,21.1586667 C1.34923664,20.7491667 0.917557252,20.2797778 0.623282443,19.7505 C0.329007634,19.2212222 0.181679389,18.6569444 0.181679389,18.0576667 C0.181679389,16.5993333 1.00572519,15.491 2.65381679,14.7318889 C1.73167939,14.2123333 1.27061069,13.5232222 1.27061069,12.6645556 C1.27061069,11.7654444 1.78053435,11.0666111 2.80076336,10.5668889 C1.25114504,9.46827778 0.475954198,7.86061111 0.475954198,5.74311111 C0.475954198,4.90427778 0.613358779,4.12027778 0.888167939,3.39111111 C1.16259542,2.66194444 1.55496183,2.03777778 2.06526718,1.51861111 C2.57519084,0.999055556 3.1980916,0.589555556 3.93396947,0.290111111 C4.66946565,-0.00972222222 5.49847328,-0.159444444 6.42061069,-0.159444444 C7.7351145,-0.159444444 8.88282443,0.160222222 9.86374046,0.799166667 C10.8057252,0.320055556 11.8946565,0.0801111111 13.1305344,0.0801111111 L13.8664122,0.0801111111 L13.6015267,2.26761111 L12.4832061,2.26761111 C12.1496183,2.26761111 11.7767176,2.29755556 11.3648855,2.35744444 C12.0515267,3.33627778 12.3946565,4.45472222 12.3946565,5.71316667 C12.3946565,6.51233333 12.2622137,7.26638889 11.9973282,7.97533333 C11.7328244,8.68427778 11.3450382,9.30883333 10.8351145,9.84783333 C10.3248092,10.3872222 9.7019084,10.8118889 8.96641221,11.1214444 C8.23053435,11.431 7.40152672,11.5857778 6.47938931,11.5857778 C5.87137405,11.5857778 5.30229008,11.5258889 4.77251908,11.4061111 C4.47824427,11.5659444 4.33129771,11.7654444 4.33129771,12.0053889 C4.33129771,12.1850556 4.39503817,12.3347778 4.52251908,12.4545556 C4.65,12.5747222 4.8610687,12.6843889 5.15534351,12.7843333 C5.44961832,12.8842778 5.84694656,12.9791667 6.34732824,13.069 C6.84732824,13.1588333 7.48015267,13.2537222 8.24541985,13.3536667 C8.89274809,13.4536111 9.55992366,13.5831111 10.2465649,13.7429444 C10.9332061,13.9027778 11.5610687,14.1427222 12.1301527,14.4623889 C12.698855,14.7816667 13.1698473,15.2012778 13.5423664,15.7204444 C13.9152672,16.24 14.121374,16.9092778 14.160687,17.7282778 C14.160687,19.1663889 13.5423664,20.3198333 12.3064885,21.1886111 C11.0706107,22.0577778 9.32442748,22.4921667 7.06832061,22.4921667 L7.06832061,22.4921667 Z M6.42061069,2.41733333 C5.47900763,2.41733333 4.75801527,2.71677778 4.25763359,3.31605556 C3.75725191,3.91533333 3.50725191,4.72422222 3.50725191,5.74311111 C3.50725191,6.762 3.76221374,7.57088889 4.27251908,8.17016667 C4.78244275,8.76944444 5.50839695,9.06888889 6.45,9.06888889 C7.39198473,9.06888889 8.1129771,8.76438889 8.6129771,8.155 C9.11335878,7.546 9.36374046,6.73205556 9.36374046,5.71316667 C9.36374046,4.69427778 9.10839695,3.89044444 8.59847328,3.30127778 C8.08816794,2.71211111 7.36259542,2.41733333 6.42061069,2.41733333 L6.42061069,2.41733333 Z M7.21526718,15.8705556 L5.18473282,15.5707222 C4.55687023,15.7706111 4.04656489,16.0603333 3.65419847,16.4398889 C3.26183206,16.8190556 3.06564885,17.2686111 3.06564885,17.7881667 C3.06564885,18.4671667 3.40916031,19.0116111 4.09580153,19.4211111 C4.78244275,19.8306111 5.74389313,20.0351667 6.97977099,20.0351667 C8.21603053,20.0351667 9.21145038,19.8352778 9.96679389,19.4358889 C10.7221374,19.0365 11.1,18.5169444 11.1,17.878 C11.1,17.2985556 10.7664122,16.8641667 10.0992366,16.5744444 C9.43244275,16.2847222 8.47099237,16.0502222 7.21526718,15.8705556 L7.21526718,15.8705556 Z" id="path-7"></path>
        <path d="M7.0019084,22.6901111 C5.49122137,22.6901111 4.19618321,22.2005 3.11717557,21.2220556 L2.99961832,22.3902778 L-0.0904580153,22.3902778 L-0.0904580153,-0.0812777778 L3.23473282,-0.0812777778 L3.23473282,8.51783333 C4.19618321,7.65877778 5.4519084,7.22944444 7.0019084,7.22944444 C8.0610687,7.22944444 9.02251908,7.42933333 9.88587786,7.82872222 C10.7492366,8.22811111 11.4847328,8.77255556 12.0931298,9.46166667 C12.701145,10.1507778 13.1721374,10.9697778 13.5057252,11.9186667 C13.839313,12.8671667 14.0061069,13.881 14.0061069,14.9597778 C14.0061069,16.0385556 13.8438931,17.0469444 13.520229,17.9861111 C13.1965649,18.9248889 12.7305344,19.7438889 12.1225191,20.4427222 C11.5141221,21.1419444 10.778626,21.6914444 9.91526718,22.0908333 C9.0519084,22.4902222 8.08091603,22.6901111 7.0019084,22.6901111 L7.0019084,22.6901111 Z M6.7370229,10.1056667 C5.59885496,10.1056667 4.70648855,10.5353889 4.05877863,11.3940556 C3.41145038,12.2531111 3.08778626,13.4415556 3.08778626,14.9597778 C3.08778626,16.5176667 3.41145038,17.7212778 4.05877863,18.5702222 C4.70648855,19.4191667 5.59885496,19.8434444 6.7370229,19.8434444 C7.91412214,19.8434444 8.85076336,19.3892222 9.54732824,18.4803889 C10.2438931,17.5715556 10.5919847,16.3978889 10.5919847,14.9597778 C10.5919847,13.5216667 10.248855,12.3530556 9.56221374,11.4539444 C8.87557252,10.5552222 7.93358779,10.1056667 6.7370229,10.1056667 L6.7370229,10.1056667 Z" id="path-9"></path>
        <path id="path-11" d="M12.8019084,22.3902778 L9.47633588,22.3902778 L9.47633588,14.3904444 C9.47633588,12.8924444 9.24122137,11.8035556 8.77022901,11.1245556 C8.29923664,10.4455556 7.50458015,10.1056667 6.38625954,10.1056667 C5.05229008,10.1056667 4.0221374,10.5952778 3.29618321,11.5741111 L3.29618321,22.3902778 L-0.0290076336,22.3902778 L-0.0290076336,-0.0812777778 L3.29618321,-0.0812777778 L3.29618321,8.54777778 C4.31641221,7.66888889 5.45458015,7.22944444 6.71030534,7.22944444 C10.771374,7.22944444 12.8019084,9.61644444 12.8019084,14.3904444 L12.8019084,22.3902778 L12.8019084,22.3902778 Z"></path>
        <path id="path-13" d="M8.87633588,17.1811111 L8.58206107,19.9678889 L6.05114504,19.9678889 C5.40343511,19.9678889 4.83473282,19.8679444 4.34427481,19.6680556 C3.85381679,19.4685556 3.44656489,19.1986667 3.12290076,18.8591667 C2.79923664,18.5196667 2.55877863,18.1202778 2.4019084,17.6606111 C2.24503817,17.2013333 2.16641221,16.702 2.16641221,16.1626111 L2.16641221,7.53355556 L-0.0408396947,7.53355556 L0.253435115,4.77672222 L2.16641221,4.77672222 L2.16641221,0.350777778 L5.49198473,-0.00894444444 L5.49198473,4.77672222 L8.90572519,4.77672222 L8.90572519,7.53355556 L5.49198473,7.53355556 L5.49198473,14.6047222 C5.49198473,15.2238333 5.51145038,15.708 5.55076336,16.0576111 C5.59007634,16.4072222 5.68816794,16.6619444 5.84503817,16.8217778 C6.0019084,16.9816111 6.24732824,17.0815556 6.58091603,17.1212222 C6.91412214,17.1612778 7.37519084,17.1811111 7.96412214,17.1811111 L8.87633588,17.1811111 L8.87633588,17.1811111 Z"></path>
        <path d="M0.134351145,7.57088889 C0.134351145,6.49211111 0.30610687,5.47827778 0.649236641,4.52977778 C0.992748092,3.58088889 1.48320611,2.76188889 2.12061069,2.07277778 C2.75839695,1.38366667 3.53320611,0.839222222 4.44580153,0.439833333 C5.35801527,0.0404444444 6.37328244,-0.159444444 7.49160305,-0.159444444 C8.60992366,-0.159444444 9.62022901,0.0404444444 10.5229008,0.439833333 C11.4251908,0.839222222 12.1954198,1.38872222 12.8328244,2.08755556 C13.4706107,2.78677778 13.9660305,3.60577778 14.319084,4.54455556 C14.6725191,5.48333333 14.848855,6.49211111 14.848855,7.57088889 C14.848855,8.64966667 14.6770992,9.65805556 14.3339695,10.5972222 C13.990458,11.536 13.5,12.355 12.8622137,13.0538333 C12.2248092,13.7530556 11.45,14.3025556 10.5374046,14.7019444 C9.62519084,15.1013333 8.60992366,15.3012222 7.49160305,15.3012222 C6.35381679,15.3012222 5.33358779,15.1013333 4.43091603,14.7019444 C3.52862595,14.3025556 2.75839695,13.7581111 2.12061069,13.069 C1.48320611,12.3798889 0.992748092,11.5659444 0.649236641,10.6271667 C0.30610687,9.688 0.134351145,8.6695 0.134351145,7.57088889 L0.134351145,7.57088889 Z M3.5480916,7.57088889 C3.5480916,9.06888889 3.89618321,10.2573333 4.59274809,11.1362222 C5.28931298,12.0151111 6.25572519,12.4545556 7.49160305,12.4545556 C8.72748092,12.4545556 9.69389313,12.0151111 10.390458,11.1362222 C11.0866412,10.2573333 11.4351145,9.06888889 11.4351145,7.57088889 C11.4351145,6.07288889 11.0866412,4.88911111 10.390458,4.02033333 C9.69389313,3.15155556 8.72748092,2.71677778 7.49160305,2.71677778 C6.25572519,2.71677778 5.28931298,3.15155556 4.59274809,4.02033333 C3.89618321,4.88911111 3.5480916,6.07288889 3.5480916,7.57088889 L3.5480916,7.57088889 Z" id="path-15"></path>
        <path id="path-17" d="M8.9389313,17.1811111 L8.64465649,19.9678889 L6.11374046,19.9678889 C5.46641221,19.9678889 4.89732824,19.8679444 4.40687023,19.6680556 C3.91641221,19.4685556 3.50916031,19.1986667 3.18549618,18.8591667 C2.86183206,18.5196667 2.62137405,18.1202778 2.46450382,17.6606111 C2.30763359,17.2013333 2.22900763,16.702 2.22900763,16.1626111 L2.22900763,7.53355556 L0.0217557252,7.53355556 L0.316030534,4.77672222 L2.22900763,4.77672222 L2.22900763,0.350777778 L5.55458015,-0.00894444444 L5.55458015,4.77672222 L8.96832061,4.77672222 L8.96832061,7.53355556 L5.55458015,7.53355556 L5.55458015,14.6047222 C5.55458015,15.2238333 5.5740458,15.708 5.61335878,16.0576111 C5.65267176,16.4072222 5.75076336,16.6619444 5.90763359,16.8217778 C6.0648855,16.9816111 6.30992366,17.0815556 6.64351145,17.1212222 C6.97709924,17.1612778 7.43816794,17.1811111 8.02671756,17.1811111 L8.9389313,17.1811111 L8.9389313,17.1811111 Z"></path>
        <path id="path-19" d="M9.03969466,17.1811111 L8.74541985,19.9678889 L6.21450382,19.9678889 C5.56679389,19.9678889 4.9980916,19.8679444 4.50763359,19.6680556 C4.01679389,19.4685556 3.60992366,19.1986667 3.28625954,18.8591667 C2.96259542,18.5196667 2.7221374,18.1202778 2.56526718,17.6606111 C2.40801527,17.2013333 2.32977099,16.702 2.32977099,16.1626111 L2.32977099,7.53355556 L0.122519084,7.53355556 L0.416793893,4.77672222 L2.32977099,4.77672222 L2.32977099,0.350777778 L5.65534351,-0.00894444444 L5.65534351,4.77672222 L9.06908397,4.77672222 L9.06908397,7.53355556 L5.65534351,7.53355556 L5.65534351,14.6047222 C5.65534351,15.2238333 5.67480916,15.708 5.71412214,16.0576111 C5.75343511,16.4072222 5.85152672,16.6619444 6.00839695,16.8217778 C6.16526718,16.9816111 6.41068702,17.0815556 6.74389313,17.1212222 C7.07748092,17.1612778 7.53854962,17.1811111 8.12709924,17.1811111 L9.03969466,17.1811111 L9.03969466,17.1811111 Z"></path>
    </defs>
    <g id="Page-1" stroke="none" stroke-width="1" fill="none" fill-rule="evenodd" sketch:type="MSPage">
        <g id="horizontal_default" sketch:type="MSLayerGroup" transform="translate(1.000000, 1.000000)">
            <g id="Group-3" transform="translate(72.137405, 9.722222)">
                <mask id="mask-2" sketch:name="Clip 2" fill="white">
                    <use xlink:href="#path-1"></use>
                </mask>
                <g id="Clip-2"></g>
                <path d="M-0.029389313,-0.0812777778 L12.8015267,-0.0812777778 L12.8015267,22.3902778 L-0.029389313,22.3902778 L-0.029389313,-0.0812777778 Z" id="Fill-1" fill="#C52D2F" sketch:type="MSShapeGroup" mask="url(#mask-2)"></path>
            </g>
            <g id="Group-6" transform="translate(87.404580, 17.111111)">
                <mask id="mask-4" sketch:name="Clip 5" fill="white">
                    <use xlink:href="#path-3"></use>
                </mask>
                <g id="Clip-5"></g>
                <path d="M-0.084351145,-0.159444444 L14.6301527,-0.159444444 L14.6301527,15.3012222 L-0.084351145,15.3012222 L-0.084351145,-0.159444444 Z" id="Fill-4" fill="#C52D2F" sketch:type="MSShapeGroup" mask="url(#mask-4)"></path>
            </g>
            <g id="Group-9" transform="translate(104.580153, 17.111111)">
                <mask id="mask-6" sketch:name="Clip 8" fill="white">
                    <use xlink:href="#path-5"></use>
                </mask>
                <g id="Clip-8"></g>
                <path d="M-0.164122137,0.110055556 L12.490458,0.110055556 L12.490458,15.3012222 L-0.164122137,15.3012222 L-0.164122137,0.110055556 Z" id="Fill-7" fill="#C52D2F" sketch:type="MSShapeGroup" mask="url(#mask-6)"></path>
            </g>
            <g id="Group-12" transform="translate(119.083969, 17.111111)">
                <mask id="mask-8" sketch:name="Clip 11" fill="white">
                    <use xlink:href="#path-7"></use>
                </mask>
                <g id="Clip-11"></g>
                <path d="M0.181679389,-0.159444444 L14.160687,-0.159444444 L14.160687,22.4921667 L0.181679389,22.4921667 L0.181679389,-0.159444444 Z" id="Fill-10" fill="#C52D2F" sketch:type="MSShapeGroup" mask="url(#mask-8)"></path>
            </g>
            <g id="Group-15" transform="translate(160.305344, 9.722222)">
                <mask id="mask-10" sketch:name="Clip 14" fill="white">
                    <use xlink:href="#path-9"></use>
                </mask>
                <g id="Clip-14"></g>
                <path d="M-0.0904580153,-0.0812777778 L14.0061069,-0.0812777778 L14.0061069,22.6901111 L-0.0904580153,22.6901111 L-0.0904580153,-0.0812777778 Z" id="Fill-13" fill="#393B44" sketch:type="MSShapeGroup" mask="url(#mask-10)"></path>
            </g>
            <g id="Group-18" transform="translate(134.732824, 9.722222)">
                <mask id="mask-12" sketch:name="Clip 17" fill="white">
                    <use xlink:href="#path-11"></use>
                </mask>
                <g id="Clip-17"></g>
                <path d="M-0.0290076336,-0.0812777778 L12.8019084,-0.0812777778 L12.8019084,22.3902778 L-0.0290076336,22.3902778 L-0.0290076336,-0.0812777778 Z" id="Fill-16" fill="#C52D2F" sketch:type="MSShapeGroup" mask="url(#mask-12)"></path>
            </g>
            <g id="Group-21" transform="translate(148.854962, 12.444444)">
                <mask id="mask-14" sketch:name="Clip 20" fill="white">
                    <use xlink:href="#path-13"></use>
                </mask>
                <g id="Clip-20"></g>
                <path d="M-0.0408396947,-0.00894444444 L8.90572519,-0.00894444444 L8.90572519,19.9678889 L-0.0408396947,19.9678889 L-0.0408396947,-0.00894444444 Z" id="Fill-19" fill="#C52D2F" sketch:type="MSShapeGroup" mask="url(#mask-14)"></path>
            </g>
            <g id="Group-24" transform="translate(175.954198, 17.111111)">
                <mask id="mask-16" sketch:name="Clip 23" fill="white">
                    <use xlink:href="#path-15"></use>
                </mask>
                <g id="Clip-23"></g>
                <path d="M0.134351145,-0.159444444 L14.848855,-0.159444444 L14.848855,15.3012222 L0.134351145,15.3012222 L0.134351145,-0.159444444 Z" id="Fill-22" fill="#393B44" sketch:type="MSShapeGroup" mask="url(#mask-16)"></path>
            </g>
            <g id="Group-27" transform="translate(191.221374, 12.444444)">
                <mask id="mask-18" sketch:name="Clip 26" fill="white">
                    <use xlink:href="#path-17"></use>
                </mask>
                <g id="Clip-26"></g>
                <path d="M0.0217557252,-0.00894444444 L8.96832061,-0.00894444444 L8.96832061,19.9678889 L0.0217557252,19.9678889 L0.0217557252,-0.00894444444 Z" id="Fill-25" fill="#393B44" sketch:type="MSShapeGroup" mask="url(#mask-18)"></path>
            </g>
            <g id="Group-30" transform="translate(60.687023, 12.444444)">
                <mask id="mask-20" sketch:name="Clip 29" fill="white">
                    <use xlink:href="#path-19"></use>
                </mask>
                <g id="Clip-29"></g>
                <path d="M0.122519084,-0.00894444444 L9.06908397,-0.00894444444 L9.06908397,19.9678889 L0.122519084,19.9678889 L0.122519084,-0.00894444444 Z" id="Fill-28" fill="#C52D2F" sketch:type="MSShapeGroup" mask="url(#mask-20)"></path>
            </g>
            <path d="M24.0030534,-0.1505 C10.6419847,-0.1505 -0.189694656,10.885 -0.189694656,24.5 C-0.189694656,38.1122778 10.6419847,49.1505 24.0030534,49.1505 C37.3637405,49.1505 48.1954198,38.1122778 48.1954198,24.5 C48.1954198,10.885 37.3637405,-0.1505 24.0030534,-0.1505" id="Fill-31" fill="#C52D2F" sketch:type="MSShapeGroup"></path>
            <path d="M17.7645038,26.1216667 L16.790458,26.1216667 L16.790458,33.1205 L16.7854962,33.1205 C17.1137405,33.5136667 17.3129771,34.0219444 17.3129771,34.5768889 C17.3129771,35.2683333 17.0057252,35.8874444 16.5232824,36.3012222 L15.9221374,35.6891111 C16.2534351,35.4355556 16.4675573,35.0318889 16.4675573,34.5768889 C16.4675573,33.8092222 15.8564885,33.1862222 15.1026718,33.1862222 C14.348855,33.1862222 13.7377863,33.8092222 13.7377863,34.5768889 C13.7377863,35.028 13.948855,35.4293333 14.2755725,35.6836667 L13.6751908,36.2946111 C13.1965649,35.8812222 12.8923664,35.2648333 12.8923664,34.5768889 C12.8923664,34.0211667 13.0919847,33.5128889 13.4209924,33.1197222 L13.4209924,22.2075 C13.4423664,21.7871111 13.7744275,21.4503333 14.1851145,21.4503333 L33.8206107,21.4526667 C34.2312977,21.4526667 34.5633588,21.7898333 34.5847328,22.2098333 L34.5847328,33.1220556 C34.9137405,33.5152222 35.1133588,34.0235 35.1133588,34.5796111 C35.1133588,35.2671667 34.8091603,35.8839444 34.3305344,36.2973333 L33.7301527,35.686 C34.0568702,35.4320556 34.2679389,35.0307222 34.2679389,34.5796111 C34.2679389,33.8115556 33.6568702,33.1889444 32.9030534,33.1889444 C32.1492366,33.1889444 31.5381679,33.8115556 31.5381679,34.5796111 C31.5381679,35.0342222 31.7522901,35.4378889 32.0835878,35.6918333 L31.4824427,36.3035556 C31,35.8901667 30.6927481,35.2706667 30.6927481,34.5796111 C30.6927481,34.0242778 30.8919847,33.5163889 31.220229,33.1232222 L31.2152672,33.1232222 L31.2152672,26.124 L30.2412214,26.124 L30.2412214,40.8978889 L30.8935115,41.2766667 L30.8935115,42.4775556 L24.3232824,42.4775556 L24.3232824,41.2766667 L24.9774809,40.8978889 L24.9782443,40.8978889 L24.9782443,36.4155556 L23.0267176,36.4155556 L23.0267176,40.8978889 L23.6790076,41.2766667 L23.6790076,42.4775556 L17.1221374,42.4888333 L17.1221374,41.2766667 L17.7637405,40.8978889 L17.7645038,26.1216667" id="Fill-32" fill="#FFFFFF" sketch:type="MSShapeGroup"></path>
            <path d="M24.0064885,10.1157778 C25.3698473,10.1157778 26.6045802,10.6108333 27.3660305,11.3555556 L27.9675573,10.4821111 C27.0171756,9.61411111 25.5954198,9.06305556 24.0064885,9.06305556 C22.4137405,9.06305556 20.9885496,9.61683333 20.0381679,10.4887222 L20.639313,11.3633333 C21.4,10.6139444 22.6385496,10.1157778 24.0064885,10.1157778" id="Fill-33" fill="#FFFFFF" sketch:type="MSShapeGroup"></path>
            <path d="M24.0446565,7.88394444 C25.5343511,7.88394444 26.9236641,8.32222222 27.9568702,9.11866667 C28.1667939,9.28044444 28.3561069,9.45272222 28.5232824,9.63355556 L29.1255725,8.757 C27.9526718,7.58566667 26.1129771,6.83083333 24.0446565,6.83083333 C21.9263359,6.83083333 20.0480916,7.62222222 18.879771,8.84216667 L19.4854962,9.72338889 C19.6717557,9.5095 19.8877863,9.30688889 20.1320611,9.11866667 C21.1652672,8.32222222 22.5545802,7.88394444 24.0446565,7.88394444" id="Fill-34" fill="#FFFFFF" sketch:type="MSShapeGroup"></path>
            <path d="M24.0064885,5.74233333 C26.3709924,5.74272222 28.4610687,6.62005556 29.7030534,7.95472222 L30.301145,7.08594444 C28.8526718,5.62916667 26.5717557,4.68961111 24.0064885,4.68961111 C21.4366412,4.68961111 19.1526718,5.63188889 17.7041985,7.09294444 L18.3019084,7.96288889 C19.5435115,6.62394444 21.6374046,5.74272222 24.0064885,5.74233333" id="Fill-35" fill="#FFFFFF" sketch:type="MSShapeGroup"></path>
            <path d="M22.1118321,16.0541111 C22.1118321,16.4188889 21.821374,16.716 21.4614504,16.716 C21.1038168,16.716 20.8122137,16.4188889 20.8122137,16.0541111 C20.8122137,15.6862222 21.1038168,15.3910556 21.4614504,15.3910556 C21.821374,15.3910556 22.1118321,15.6862222 22.1118321,16.0541111" id="Fill-36" fill="#FFFFFF" sketch:type="MSShapeGroup"></path>
            <path d="M26.560687,17.3479444 C25.8576336,17.3479444 25.2881679,16.7669444 25.2881679,16.0541111 C25.2881679,15.3381667 25.8576336,14.7587222 26.560687,14.7587222 C27.2622137,14.7587222 27.830916,15.3381667 27.830916,16.0541111 C27.830916,16.7669444 27.2622137,17.3479444 26.560687,17.3479444 L26.560687,17.3479444 Z M21.4614504,17.3479444 C20.760687,17.3479444 20.1919847,16.7669444 20.1919847,16.0541111 C20.1919847,15.3381667 20.760687,14.7587222 21.4614504,14.7587222 C22.1625954,14.7587222 22.7312977,15.3381667 22.7312977,16.0541111 C22.7312977,16.7669444 22.1625954,17.3479444 21.4614504,17.3479444 L21.4614504,17.3479444 Z M28.9912214,12.4864444 L19.0145038,12.4864444 C18.6057252,12.4864444 18.2709924,12.8247778 18.2709924,13.2432222 L18.2709924,19.8745556 C18.2709924,20.2902778 18.6057252,20.6309444 19.0145038,20.6309444 L28.9912214,20.6309444 C29.4019084,20.6309444 29.7347328,20.2902778 29.7347328,19.8745556 L29.7347328,13.2432222 C29.7347328,12.8247778 29.4019084,12.4864444 28.9912214,12.4864444 L28.9912214,12.4864444 Z" id="Fill-37" fill="#FFFFFF" sketch:type="MSShapeGroup"></path>
            <path d="M27.2129771,16.0541111 C27.2129771,16.4188889 26.9183206,16.716 26.560687,16.716 C26.2019084,16.716 25.9110687,16.4188889 25.9110687,16.0541111 C25.9110687,15.6862222 26.2019084,15.3910556 26.560687,15.3910556 C26.9183206,15.3910556 27.2129771,15.6862222 27.2129771,16.0541111" id="Fill-38" fill="#FFFFFF" sketch:type="MSShapeGroup"></path>
        </g>
    </g>
</svg>